#!OML:ASF X:\für Bonn\!DataBase\2005_08_12_Daniel\c3d\Daniel.ASF
:FULLY-SPECIFIED
:DEGREES
440
root 14.9902 1.29745 1.04364 -722.058 -84.214 -99.2109
lowerback 16.4563 -2.82334 2.65174
upperback 0.354932 -3.42724 -1.11298
thorax -9.08997 -1.82265 -1.87268
lowerneck -12.0048 0.527102 -11.0044
upperneck 6.65708 1.95815 5.31114
head 3.77551 0.962716 3.53911
rclavicle 6.55989e-014 -1.19967e-013
rhumerus -52.7352 -21.4761 -57.4798
rradius 11.3695
rwrist 78.9744
rhand -10.1792 -345.446
rfingers 7.12502
rthumb 15.8111 -374.821
lclavicle 6.55989e-014 -1.19967e-013
lhumerus -408.536 11.0533 -292.68
lradius 15.3972
lwrist -59.4805
lhand -6.36178 351.227
lfingers 7.12502
lthumb 19.4845 380.271
rfemur 191.931 -199.874 200.387
rtibia 16.4361
rfoot -20.1831 -33.9935
rtoes 29.2062
lfemur 0.958289 -23.2273 -17.6517
ltibia 29.6139
lfoot -6.34666 30.6176
ltoes 16.1916
441
root 14.9914 1.30166 1.04242 -722.155 -84.1504 -99.1012
lowerback 16.37 -2.84724 2.63558
upperback 0.387393 -3.46591 -1.12259
thorax -9.00781 -1.84039 -1.86869
lowerneck -11.9971 0.4919 -10.958
upperneck 6.59456 1.90183 5.33176
head 3.76 0.938824 3.53386
rclavicle -8.17005e-014 1.02039e-013
rhumerus -52.7285 -21.5916 -57.3933
rradius 11.3686
rwrist 79.1691
rhand -10.0204 -345.467
rfingers 7.12502
rthumb 15.964 -374.829
lclavicle -8.17005e-014 1.02039e-013
lhumerus -408.482 10.9557 -292.59
lradius 15.4133
lwrist -59.2759
lhand -6.27844 351.254
lfingers 7.12502
lthumb 19.5647 380.29
rfemur 191.96 -199.949 200.445
rtibia 16.4244
rfoot -20.1881 -33.9678
rtoes 29.3625
lfemur 0.897267 -22.9536 -17.5364
ltibia 29.6305
lfoot -6.07087 30.5949
ltoes 15.9604
442
root 14.9923 1.30531 1.04175 -722.368 -84.0813 -98.8764
lowerback 16.2952 -2.87784 2.58221
upperback 0.408938 -3.51781 -1.10557
thorax -8.94073 -1.86246 -1.81111
lowerneck -11.9852 0.469213 -10.9668
upperneck 6.55365 1.86917 5.36427
head 3.74784 0.925175 3.54284
rclavicle 3.22031e-014 9.57894e-015
rhumerus -52.6457 -21.4724 -57.4713
rradius 11.3921
rwrist 79.1738
rhand -9.89122 -345.516
rfingers 7.12502
rthumb 16.0884 -374.868
lclavicle 3.22031e-014 9.57894e-015
lhumerus -408.476 11.0047 -292.574
lradius 15.4065
lwrist -59.2204
lhand -6.24735 351.226
lfingers 7.12502
lthumb 19.5946 380.259
rfemur 191.948 -199.833 200.414
rtibia 16.4175
rfoot -19.8971 -33.9729
rtoes 29.4552
lfemur 0.851432 -22.7446 -17.4582
ltibia 29.6434
lfoot -5.96591 30.5946
ltoes 15.8771
443
root 14.9937 1.30886 1.04065 -722.47 -84.0218 -98.7582
lowerback 16.2115 -2.89808 2.55255
upperback 0.441736 -3.55296 -1.1035
thorax -8.85781 -1.87776 -1.78794
lowerneck -11.9713 0.432886 -10.9448
upperneck 6.47927 1.81512 5.37798
head 3.72739 0.90142 3.53927
rclavicle 3.37934e-014 -2.23633e-016
rhumerus -52.5511 -21.3728 -57.6123
rradius 11.4219
rwrist 79.061
rhand -9.73604 -345.578
rfingers 7.12502
rthumb 16.2378 -374.918
lclavicle 3.37934e-014 -2.23633e-016
lhumerus -408.437 10.9586 -292.493
lradius 15.4423
lwrist -59.0616
lhand -6.15157 351.254
lfingers 7.12502
lthumb 19.6866 380.277
rfemur 191.901 -199.588 200.332
rtibia 16.4089
rfoot -19.3523 -34.0052
rtoes 29.3487
lfemur 0.796945 -22.5311 -17.3645
ltibia 29.656
lfoot -5.73423 30.5832
ltoes 15.6916
444
root 14.9948 1.31145 1.03865 -722.688 -83.9502 -98.5181
lowerback 16.1487 -2.92227 2.49462
upperback 0.452286 -3.5971 -1.09554
thorax -8.80928 -1.89627 -1.73896
lowerneck -11.917 0.412556 -10.9268
upperneck 6.42002 1.77669 5.41547
head 3.70346 0.885916 3.5445
rclavicle 6.20208e-014 -6.33999e-014
rhumerus -52.5819 -21.4957 -57.4524
rradius 11.4291
rwrist 79.3181
rhand -9.57981 -345.593
rfingers 7.12502
rthumb 16.3882 -374.92
lclavicle 6.20208e-014 -6.33999e-014
lhumerus -408.424 10.9321 -292.441
lradius 15.4415
lwrist -58.9356
lhand -6.12856 351.289
lfingers 7.12502
lthumb 19.7088 380.31
rfemur 191.824 -199.239 200.203
rtibia 16.4095
rfoot -18.5986 -34.0493
rtoes 29.1807
lfemur 0.728228 -22.2603 -17.2693
ltibia 29.6647
lfoot -5.44548 30.5455
ltoes 15.4291
